<?xml version="1.0" standalone="no"?>
<!DOCTYPE svg PUBLIC "-//W3C//DTD SVG 20010904//EN"
 "http://www.w3.org/TR/2001/REC-SVG-20010904/DTD/svg10.dtd">
<svg version="1.0" xmlns="http://www.w3.org/2000/svg"
 width="512.000000pt" height="512.000000pt" viewBox="0 0 512.000000 512.000000"
 preserveAspectRatio="xMidYMid meet">
<metadata>
Created by potrace 1.14, written by Peter Selinger 2001-2017
</metadata>
<g transform="translate(0.000000,512.000000) scale(0.100000,-0.100000)"
fill="#000000" stroke="none">
<path d="M900 4418 c0 -55 289 -3321 297 -3357 l8 -34 677 -192 676 -193 679
192 678 192 8 35 c8 36 297 3303 297 3357 l0 32 -1660 0 -1660 0 0 -32z m2700
-700 c-1 -58 -187 -2078 -192 -2084 -3 -2 -195 -59 -427 -124 l-422 -120 -317
99 c-174 55 -370 116 -434 136 -112 34 -118 37 -118 63 0 15 -9 142 -20 282
-11 140 -20 265 -20 278 l0 22 204 0 205 0 5 -42 c3 -24 11 -97 17 -163 6 -66
14 -123 17 -126 4 -4 110 -34 235 -69 l228 -62 227 63 c125 34 228 63 230 65
2 1 14 105 27 231 13 125 27 249 30 276 l6 47 -490 0 -489 0 -6 43 c-3 23 -10
96 -16 162 -5 66 -13 139 -16 162 l-5 43 528 2 528 3 17 175 c9 96 17 192 17
213 l1 37 -800 0 c-440 0 -800 1 -800 3 0 1 -7 76 -15 167 -8 91 -15 184 -15
208 l0 42 1040 0 1040 0 0 -32z"/>
</g>
</svg>
